<svg width="150" height="150" viewBox="0 0 150 150" fill="none" xmlns="http://www.w3.org/2000/svg">
<mask id="mask0_0:206" style="mask-type:alpha" maskUnits="userSpaceOnUse" x="0" y="0" width="150" height="150">
<rect width="150" height="150" fill="white"/>
</mask>
<g mask="url(#mask0_0:206)">
<g opacity="0.1">
<path fill-rule="evenodd" clip-rule="evenodd" d="M109.679 84.5932C109.741 85.0616 109.795 85.4622 109.859 85.9395C110.289 85.8885 110.626 85.8503 111.046 85.8023C110.981 85.3231 110.924 84.9238 110.861 84.4603C110.424 84.51 110.082 84.549 109.679 84.5932ZM109.593 83.5735C109.979 83.5566 110.323 83.5435 110.761 83.523C110.721 82.9158 110.684 82.362 110.639 81.6892C112.276 81.3977 111.316 82.9737 111.901 83.3461C112.513 83.7563 113.697 82.5917 114.026 84.1696C113.313 84.2592 112.686 84.3365 111.928 84.4293C111.96 84.8255 111.993 85.2252 112.03 85.723C112.63 85.7016 113.156 85.6523 113.677 85.6838C113.862 85.6942 114.036 85.9018 114.214 86.0197C114.067 86.216 113.952 86.5392 113.768 86.5835C113.291 86.6986 112.784 86.6936 112.218 86.7421C112.237 87.3127 112.253 87.8302 112.269 88.3425C111.393 88.5537 111.393 88.5537 111.099 86.8379C110.77 86.8453 110.43 86.8542 109.944 86.8671C109.982 87.2848 110.067 87.659 110.035 88.0241C110.014 88.2481 109.815 88.4564 109.697 88.6734C109.475 88.5026 109.147 88.3759 109.058 88.1525C108.918 87.8085 108.942 87.3959 108.891 86.9756C108.364 87.0163 107.899 87.1065 107.447 87.0612C107.254 87.0423 107.085 86.7472 106.907 86.5764C107.061 86.4225 107.195 86.1709 107.376 86.1312C107.818 86.0366 108.282 86.0383 108.799 85.9957C108.749 85.5245 108.707 85.1452 108.66 84.6914C108.017 84.696 107.422 84.6994 106.763 84.7041C106.608 84.2211 106.425 83.799 107.218 83.7778C107.637 83.7655 108.054 83.695 108.526 83.6471C108.498 83.2312 108.411 82.8721 108.469 82.5377C108.518 82.2611 108.738 82.0143 108.882 81.7546C109.07 81.9954 109.327 82.2106 109.43 82.4844C109.551 82.806 109.541 83.1768 109.593 83.5735Z" fill="black"/>
<path fill-rule="evenodd" clip-rule="evenodd" d="M85.8299 87.9151C87.9867 86.2976 88.5893 84.0854 87.6116 82.0623C86.8716 80.5292 85.2956 79.6944 83.9674 80.0703C84.5782 82.6382 85.1856 85.2029 85.8299 87.9151ZM80.2388 68.6327C80.3843 68.6845 80.5313 68.7345 80.6767 68.783C81.3248 67.5393 82.1434 66.3466 82.5719 65.0303C83.005 63.7039 83.1147 62.2549 83.2209 60.8479C83.2471 60.4974 82.7636 59.8536 82.4341 59.7948C82.0123 59.7209 81.4499 60.0232 81.0642 60.316C80.7843 60.5282 80.6327 60.97 80.522 61.3402C79.8044 63.7504 79.8729 66.19 80.2388 68.6327ZM81.7221 77.2417C81.4637 76.1552 81.2052 75.0686 80.8897 73.7348C79.1708 76.364 77.5234 78.7448 76.749 81.5869C76.1921 83.6252 76.3093 85.5948 78.1338 86.9444C80.1416 88.4282 82.3634 89.3876 84.9425 88.381C84.9968 88.359 85.0254 88.2677 85.116 88.1374C84.3763 85.5155 83.6214 82.8389 82.8475 80.0994C81.8101 80.5755 81.3175 81.2986 81.1421 82.2062C80.8069 83.9441 81.3176 85.4132 82.8726 86.5565C81.0366 86.5989 79.062 85.0638 78.5922 83.3791C77.92 80.9656 79.0221 78.8045 81.7221 77.2417ZM81.4185 98.2052C82.3274 99.1202 83.3156 99.2446 84.3504 98.8839C86.2237 98.2348 87.1948 96.6253 86.8275 94.6694C86.4991 92.9196 86.0214 91.1984 85.5826 89.3471C83.7645 90.1901 82.0431 90.1164 80.3085 89.7136C73.6343 88.1587 72.3489 81.4863 74.7245 77.1415C75.976 74.8531 77.5339 72.7314 79.0274 70.5851C79.4886 69.92 79.7054 69.3839 79.4908 68.5467C78.7603 65.7104 78.4352 62.8097 79.0677 59.9224C79.3269 58.7342 79.9557 57.6066 80.5458 56.5205C80.9178 55.8368 81.5163 55.8494 82.1597 56.3839C85.781 59.3936 86.5866 63.9518 84.2041 68.6715C83.5619 69.9434 82.6784 71.0932 81.9343 72.3151C81.7637 72.5971 81.555 72.984 81.6231 73.2576C81.9261 74.4731 82.3235 75.6652 82.6955 76.8949C82.997 76.9162 83.2772 76.9516 83.5579 76.9551C86.3777 77.0072 88.4986 78.4753 89.3252 80.9537C90.1873 83.5412 89.4416 86.2 87.2199 87.8732C86.4029 88.4905 86.251 89.0194 86.5566 89.9755C87.0539 91.5387 87.4742 93.1465 87.7295 94.7667C88.1138 97.2087 86.6211 99.283 84.1997 99.9262C81.9257 100.531 79.5564 99.3641 78.6385 97.1883C77.9737 95.6108 78.7347 93.4868 80.2763 92.6201C81.2429 92.0762 82.0311 92.2142 82.7606 93.0602C84.2875 94.8334 83.7227 97.2215 81.4185 98.2052Z" fill="black"/>
<path fill-rule="evenodd" clip-rule="evenodd" d="M109.73 131.849C108.874 133.302 108.052 134.694 107.233 136.088C106.939 136.586 106.638 137.082 106.363 137.593C106.054 138.17 105.569 138.399 104.966 138.235C104.495 138.108 104.009 137.919 103.625 137.633C103.383 137.453 103.147 136.995 103.213 136.743C103.29 136.446 103.659 136.117 103.97 136.01C104.758 135.745 105.444 136.122 106.129 136.604C107.407 134.435 108.679 132.279 109.993 130.048C110.713 131.524 110.975 132.905 110.069 134.349C110.036 133.498 110.457 132.595 109.73 131.849Z" fill="black"/>
<path fill-rule="evenodd" clip-rule="evenodd" d="M122.804 70.7343C123.098 70.3196 123.874 70.1844 124.483 70.5412C125.06 70.8799 125.559 71.3583 126.167 71.8341C127.498 70.7527 128.941 69.5771 130.46 68.3415L132.441 66.7256C134.639 68.6702 136.834 70.6073 139.046 72.5614C138.138 73.3012 137.275 74.0053 136.41 74.7038C135.003 75.8421 133.594 76.9781 132.188 78.1148C131.009 79.0675 129.789 78.8525 128.961 77.5115C128.675 77.0489 128.354 76.5436 128.752 75.9995C129.079 75.5521 129.782 75.4045 130.419 75.7684C131.018 76.1096 131.536 76.6003 132.168 77.0875L136.461 73.5949C135.509 72.7509 134.591 71.9339 133.667 71.1226C132.979 70.5171 132.25 69.9547 131.602 69.3077C131.219 68.9266 130.997 69.0148 130.651 69.2999C129.206 70.4955 127.739 71.6646 126.28 72.8454C125.051 73.8378 123.986 73.6921 123.045 72.3648C122.697 71.8731 122.385 71.3271 122.804 70.7343Z" fill="black"/>
<path fill-rule="evenodd" clip-rule="evenodd" d="M42.8347 98.4897C42.7728 98.1167 43.1106 97.6391 43.619 97.5081C44.1003 97.3854 44.6124 97.3759 45.1817 97.3078C45.3173 96.0416 45.4638 94.6669 45.6204 93.2227L45.8189 91.3353L45.8192 91.3336C47.9936 91.2063 50.163 91.0779 52.3482 90.9476C52.2548 91.8132 52.1699 92.6345 52.0783 93.4562C51.9322 94.7936 51.7816 96.1283 51.6343 97.4637C51.5107 98.5806 50.7555 99.1064 49.6179 98.8342C49.2262 98.741 48.7928 98.6432 48.7189 98.1486C48.6569 97.7415 48.9509 97.2963 49.477 97.1533C49.971 97.0178 50.5004 97.0066 51.0877 96.9334L51.5267 92.8467C50.584 92.9018 49.6731 92.9512 48.7625 93.0075C48.0826 93.0491 47.4063 93.1339 46.7262 93.1328C46.3235 93.1312 46.2543 93.2948 46.2223 93.6258C46.0837 95.0122 45.9219 96.3959 45.7699 97.7814C45.6404 98.9466 45.0008 99.4285 43.8132 99.2215C43.3724 99.1443 42.9235 99.0213 42.8347 98.4897Z" fill="black"/>
<path fill-rule="evenodd" clip-rule="evenodd" d="M62.4971 115.223C63.053 115.215 63.6637 115.416 64.1578 115.691C64.7108 115.996 65.1586 116.492 65.7571 116.991C67.8549 115.027 69.9439 113.073 72.0319 111.115C72.3652 110.8 72.7444 110.433 73.1419 110.872C73.2483 110.99 72.9902 111.609 72.7481 111.84C70.3775 114.105 67.9756 116.339 65.5793 118.579C64.6793 119.421 63.9941 119.56 62.9642 118.892C62.344 118.487 61.7602 117.929 61.355 117.31C60.6765 116.278 61.2523 115.24 62.4971 115.223Z" fill="black"/>
<path fill-rule="evenodd" clip-rule="evenodd" d="M118.433 101.718C118.144 102.232 117.634 102.685 117.12 102.993C116.546 103.338 115.854 103.486 115.077 103.77C115.758 106.739 116.438 109.698 117.12 112.654C117.229 113.128 117.362 113.673 116.749 113.803C116.584 113.837 116.155 113.272 116.072 112.929C115.26 109.546 114.493 106.152 113.718 102.761C113.425 101.488 113.663 100.786 114.824 100.197C115.526 99.8397 116.347 99.6026 117.128 99.5586C118.437 99.4843 119.081 100.563 118.433 101.718Z" fill="black"/>
<path fill-rule="evenodd" clip-rule="evenodd" d="M126.016 132.66C125.999 132.372 126.29 132.039 126.682 131.979C127.056 131.922 127.442 131.956 127.877 131.947C128.076 131.003 128.294 129.978 128.521 128.898L128.817 127.49L128.819 127.49C130.468 127.56 132.114 127.63 133.774 127.7C133.637 128.346 133.509 128.96 133.378 129.573C133.164 130.57 132.948 131.565 132.734 132.563C132.556 133.397 131.945 133.734 131.109 133.442C130.819 133.342 130.5 133.234 130.482 132.854C130.467 132.543 130.724 132.23 131.13 132.162C131.513 132.099 131.915 132.131 132.362 132.119L133.008 129.07C132.293 129.039 131.602 129.007 130.91 128.978C130.394 128.957 129.876 128.971 129.364 128.917C129.061 128.886 128.994 129.002 128.946 129.25C128.734 130.285 128.507 131.317 128.283 132.351C128.097 133.221 127.579 133.534 126.699 133.287C126.371 133.194 126.042 133.067 126.016 132.66Z" fill="black"/>
<path fill-rule="evenodd" clip-rule="evenodd" d="M124.358 43.283C124.314 43.7035 124.107 44.1452 123.858 44.4935C123.578 44.8802 123.166 45.1747 122.737 45.58C124.023 47.3337 125.302 49.0826 126.584 50.8285C126.79 51.107 127.032 51.4265 126.665 51.6872C126.568 51.7553 126.125 51.5057 125.974 51.3027C124.487 49.3157 123.026 47.3085 121.559 45.3034C121.008 44.5509 120.966 44.0217 121.561 43.308C121.922 42.8758 122.392 42.487 122.893 42.237C123.731 41.8192 124.457 42.3452 124.358 43.283Z" fill="black"/>
</g>
<g opacity="0.25">
<path fill-rule="evenodd" clip-rule="evenodd" d="M138.307 102.263C137.297 105.116 136.326 107.849 135.359 110.586C135.012 111.565 134.651 112.542 134.342 113.536C133.995 114.66 133.219 115.228 132.1 115.146C131.227 115.082 130.307 114.917 129.531 114.544C129.044 114.31 128.471 113.585 128.501 113.117C128.536 112.568 129.072 111.861 129.585 111.567C130.882 110.83 132.219 111.26 133.591 111.873C135.1 107.614 136.603 103.38 138.154 99C139.928 101.354 140.863 103.697 139.761 106.551C139.411 105.063 139.843 103.328 138.307 102.263Z" fill="white"/>
<path fill-rule="evenodd" clip-rule="evenodd" d="M119.58 26.2064C119.988 25.8916 120.552 25.7031 121.069 25.6304C121.649 25.5502 122.255 25.6691 122.976 25.7086C123.44 23.0898 123.903 20.483 124.361 17.875C124.435 17.4581 124.512 16.9736 125.05 17.0816C125.193 17.109 125.346 17.7101 125.295 18.0156C124.796 21.0079 124.256 23.9966 123.726 26.9839C123.525 28.1054 123.095 28.5892 121.962 28.6626C121.278 28.7101 120.535 28.6195 119.892 28.3867C118.815 27.9971 118.666 26.9114 119.58 26.2064Z" fill="white"/>
<path fill-rule="evenodd" clip-rule="evenodd" d="M37.0464 126.675C37.0671 126.326 37.2188 125.953 37.4122 125.658C37.6261 125.325 37.9547 125.067 38.293 124.715C37.1581 123.319 36.0284 121.929 34.897 120.539C34.7158 120.317 34.5019 120.063 34.7947 119.836C34.872 119.773 35.2471 119.962 35.3807 120.122C36.693 121.703 37.9847 123.302 39.2793 124.897C39.7645 125.495 39.8214 125.928 39.3576 126.542C39.0782 126.913 38.7048 127.254 38.3017 127.479C37.6257 127.858 37.0035 127.455 37.0464 126.675Z" fill="white"/>
<path fill-rule="evenodd" clip-rule="evenodd" d="M100.504 115.502C100.524 115.883 100.129 116.323 99.6029 116.393C99.1062 116.462 98.5906 116.411 98.0119 116.412C97.7289 117.667 97.4219 119.026 97.0998 120.458L96.6812 122.327C94.4823 122.202 92.2894 122.077 90.0786 121.95C90.2711 121.094 90.4517 120.278 90.6386 119.465C90.9395 118.144 91.2452 116.822 91.5472 115.5C91.8006 114.392 92.6193 113.955 93.7295 114.361C94.1142 114.501 94.5362 114.648 94.5549 115.156C94.5701 115.57 94.2235 115.983 93.678 116.063C93.1665 116.14 92.6332 116.089 92.035 116.097L91.1227 120.141C92.0751 120.197 92.9969 120.256 93.9179 120.305C94.6042 120.343 95.2962 120.337 95.9769 120.418C96.3819 120.466 96.4703 120.311 96.5409 119.982C96.8407 118.608 97.1624 117.239 97.4754 115.868C97.7389 114.714 98.4359 114.307 99.6061 114.655C100.04 114.783 100.476 114.957 100.504 115.502Z" fill="white"/>
<path fill-rule="evenodd" clip-rule="evenodd" d="M98.5012 66.404C98.4695 65.824 99.0671 65.1554 99.8651 65.0434C100.621 64.9364 101.403 65.0099 102.282 65.0032C102.706 63.0959 103.166 61.0248 103.65 58.8467L104.276 56C107.614 56.1789 110.947 56.3544 114.302 56.5349C114.013 57.8371 113.741 59.0757 113.462 60.3144C113.01 62.3287 112.553 64.3396 112.1 66.3506C111.721 68.0372 110.479 68.7075 108.793 68.0974C108.209 67.8868 107.564 67.6628 107.536 66.8938C107.513 66.2636 108.037 65.6334 108.863 65.5064C109.639 65.3877 110.449 65.4613 111.357 65.4479L112.725 59.288C111.277 59.2095 109.878 59.1276 108.481 59.0574C107.438 59.0055 106.389 59.0189 105.352 58.9002C104.74 58.83 104.605 59.064 104.498 59.5655C104.052 61.6567 103.568 63.7395 103.099 65.8273C102.703 67.5842 101.646 68.2077 99.8685 67.6895C99.209 67.4956 98.5463 67.2298 98.5012 66.404Z" fill="white"/>
</g>
</g>
</svg>
