<svg width="150" height="150" viewBox="0 0 150 150" fill="none" xmlns="http://www.w3.org/2000/svg">
<mask id="mask0_0:269" style="mask-type:alpha" maskUnits="userSpaceOnUse" x="0" y="0" width="150" height="150">
<rect x="150" y="150" width="150" height="150" transform="rotate(-180 150 150)" fill="white"/>
</mask>
<g mask="url(#mask0_0:269)">
<g opacity="0.1">
<path fill-rule="evenodd" clip-rule="evenodd" d="M104.321 87.4068C104.259 86.9384 104.205 86.5378 104.141 86.0605C103.711 86.1114 103.374 86.1497 102.954 86.1977C103.019 86.6769 103.076 87.0762 103.139 87.5397C103.576 87.49 103.918 87.451 104.321 87.4068ZM104.407 88.4265C104.021 88.4434 103.677 88.4565 103.239 88.477C103.279 89.0842 103.316 89.638 103.361 90.3108C101.724 90.6023 102.684 89.0263 102.099 88.6539C101.487 88.2437 100.303 89.4083 99.9738 87.8304C100.687 87.7408 101.314 87.6635 102.072 87.5707C102.04 87.1745 102.007 86.7748 101.97 86.277C101.37 86.2984 100.844 86.3477 100.323 86.3162C100.138 86.3058 99.9636 86.0982 99.7859 85.9803C99.9328 85.784 100.048 85.4608 100.232 85.4165C100.709 85.3014 101.216 85.3064 101.782 85.2579C101.763 84.6873 101.747 84.1698 101.731 83.6575C102.607 83.4463 102.607 83.4463 102.901 85.1621C103.23 85.1547 103.57 85.1458 104.056 85.1329C104.018 84.7152 103.933 84.341 103.965 83.9759C103.986 83.7519 104.185 83.5436 104.303 83.3266C104.525 83.4974 104.853 83.6241 104.942 83.8475C105.082 84.1915 105.058 84.6041 105.109 85.0244C105.636 84.9837 106.101 84.8935 106.553 84.9388C106.746 84.9577 106.915 85.2528 107.093 85.4236C106.939 85.5775 106.805 85.8291 106.624 85.8688C106.182 85.9634 105.718 85.9617 105.201 86.0043C105.251 86.4755 105.293 86.8548 105.34 87.3086C105.983 87.304 106.578 87.3006 107.237 87.2959C107.392 87.7789 107.575 88.201 106.782 88.2222C106.363 88.2345 105.946 88.305 105.474 88.3529C105.502 88.7688 105.589 89.1279 105.531 89.4623C105.482 89.7389 105.262 89.9857 105.118 90.2454C104.93 90.0046 104.673 89.7894 104.57 89.5156C104.448 89.194 104.459 88.8232 104.407 88.4265Z" fill="black"/>
<path fill-rule="evenodd" clip-rule="evenodd" d="M130.454 113.064C129.66 111.558 128.056 110.779 126.742 111.201C127.442 113.746 128.139 116.287 128.877 118.976C130.976 117.284 131.501 115.052 130.454 113.064ZM123.059 100.035C123.664 98.7694 124.44 97.5489 124.822 96.2184C125.209 94.8777 125.268 93.4258 125.325 92.0159C125.339 91.6647 124.833 91.0381 124.502 90.9909C124.078 90.9318 123.526 91.2535 123.151 91.5596C122.879 91.7814 122.743 92.2283 122.645 92.6021C122.012 95.0359 122.166 97.4716 122.617 99.9C122.764 99.9467 122.912 99.9916 123.059 100.035ZM123.445 104.976C121.819 107.664 120.256 110.101 119.581 112.968C119.095 115.025 119.281 116.989 121.152 118.274C123.21 119.687 125.464 120.568 128.007 119.472C128.06 119.448 128.085 119.356 128.171 119.223C127.341 116.628 126.493 113.98 125.624 111.269C124.604 111.781 124.137 112.521 123.993 113.434C123.719 115.182 124.28 116.633 125.874 117.721C124.041 117.827 122.014 116.362 121.486 114.695C120.73 112.306 121.756 110.108 124.399 108.452C124.103 107.375 123.807 106.298 123.445 104.976ZM127.781 129.989C129.631 129.275 130.545 127.633 130.11 125.691C129.721 123.954 129.183 122.25 128.68 120.415C126.892 121.321 125.169 121.308 123.422 120.966C116.697 119.645 115.18 113.021 117.403 108.596C118.573 106.265 120.056 104.091 121.474 101.894C121.912 101.213 122.11 100.669 121.866 99.8402C121.037 97.0311 120.611 94.1435 121.142 91.2359C121.36 90.0394 121.949 88.8905 122.501 87.7845C122.849 87.0883 123.447 87.0799 124.109 87.5917C127.833 90.4731 128.797 95.0004 126.581 99.8004C125.983 101.094 125.14 102.274 124.439 103.521C124.279 103.809 124.084 104.203 124.161 104.474C124.507 105.678 124.945 106.855 125.36 108.071C125.662 108.082 125.943 108.108 126.224 108.102C129.044 108.055 131.215 109.448 132.127 111.896C133.079 114.452 132.427 117.135 130.265 118.885C129.47 119.531 129.337 120.064 129.675 121.009C130.227 122.554 130.703 124.146 131.015 125.757C131.484 128.184 130.065 130.309 127.667 131.036C125.416 131.72 123.007 130.637 122.014 128.494C121.294 126.941 121.981 124.791 123.491 123.872C124.438 123.294 125.231 123.405 125.989 124.225C127.577 125.943 127.096 128.35 124.828 129.413C125.768 130.296 126.76 130.386 127.781 129.989Z" fill="black"/>
<path fill-rule="evenodd" clip-rule="evenodd" d="M99.8323 26.6264C101.088 29.3806 102.288 32.0215 103.493 34.6614C103.924 35.6072 104.343 36.56 104.811 37.49C105.342 38.5392 105.178 39.4873 104.317 40.2054C103.645 40.7662 102.868 41.2861 102.051 41.5572C101.537 41.7275 100.622 41.6034 100.318 41.2458C99.9624 40.8271 99.8567 39.9462 100.021 39.3785C100.442 37.9472 101.702 37.3273 103.116 36.8154C101.242 32.7032 99.3819 28.6137 97.4552 24.3859C100.367 24.8463 102.667 25.8827 103.857 28.7007C102.571 27.874 101.677 26.3255 99.8323 26.6264" fill="black"/>
<path fill-rule="evenodd" clip-rule="evenodd" d="M73.9516 100.924C73.9981 100.419 74.6028 99.9134 75.3088 99.9179C75.9778 99.9226 76.649 100.088 77.4136 100.196C78.0255 98.5935 78.6872 96.8541 79.385 95.0244L80.2924 92.6347C83.1687 93.2195 86.038 93.7997 88.9307 94.386C88.5147 95.4803 88.1194 96.5216 87.7192 97.5593C87.0702 99.2484 86.4175 100.937 85.7679 102.624C85.2238 104.039 84.0596 104.463 82.6723 103.715C82.1934 103.457 81.662 103.181 81.7349 102.51C81.7941 101.96 82.3299 101.48 83.0633 101.477C83.7523 101.473 84.4467 101.639 85.2372 101.745L87.2085 96.5736C85.9625 96.3185 84.7592 96.0698 83.5534 95.8291C82.6545 95.6489 81.7419 95.5265 80.8572 95.2901C80.3346 95.1518 80.1871 95.3387 80.0298 95.7589C79.3762 97.5167 78.6903 99.2627 78.0171 101.015C77.4493 102.489 76.454 102.895 74.9754 102.216C74.4279 101.964 73.8845 101.648 73.9516 100.924" fill="black"/>
<path fill-rule="evenodd" clip-rule="evenodd" d="M133.115 40.6676C132.637 40.9523 132.008 41.084 131.443 41.0931C130.811 41.1054 130.175 40.9 129.407 40.7667C128.573 43.5167 127.741 46.2536 126.911 48.993C126.78 49.4325 126.636 49.9402 126.071 49.7579C125.92 49.7091 125.834 49.0439 125.929 48.7233C126.849 45.576 127.812 42.4404 128.767 39.3023C129.126 38.1234 129.65 37.6601 130.876 37.7241C131.615 37.7647 132.4 37.956 133.06 38.2891C134.164 38.8442 134.184 40.0306 133.115 40.6676" fill="black"/>
<path fill-rule="evenodd" clip-rule="evenodd" d="M61.1834 68.9263C60.8946 69.4406 60.3849 69.8933 59.8708 70.202C59.2969 70.5469 58.6049 70.695 57.8271 70.9781C58.5084 73.9475 59.1883 76.9065 59.8705 79.8625C59.979 80.3365 60.1128 80.8819 59.4992 81.0113C59.3344 81.0456 58.9052 80.4803 58.8222 80.1372C58.0104 76.7541 57.2432 73.361 56.4687 69.9698C56.1753 68.697 56.414 67.9941 57.5742 67.4056C58.2764 67.0483 59.0979 66.8112 59.8786 66.7671C61.1872 66.6928 61.8313 67.7716 61.1834 68.9263" fill="black"/>
<path fill-rule="evenodd" clip-rule="evenodd" d="M27.623 88.9526C28.1278 88.8486 28.7173 88.9263 29.2139 89.0877C29.7705 89.2699 30.2635 89.6427 30.8938 89.994C32.4588 87.8436 34.0178 85.7037 35.5732 83.5606C35.822 83.2182 36.1035 82.8164 36.5401 83.1495C36.6567 83.2369 36.5301 83.8439 36.3503 84.0961C34.5902 86.5669 32.7952 89.0165 31.0087 91.469C30.3367 92.389 29.7381 92.6353 28.6871 92.2044C28.0516 91.9472 27.4241 91.5404 26.9479 91.0492C26.1507 90.2269 26.4929 89.1858 27.623 88.9526" fill="black"/>
</g>
<g opacity="0.25">
<path fill-rule="evenodd" clip-rule="evenodd" d="M57.8072 109.263C56.7972 112.116 55.8256 114.849 54.859 117.586C54.5118 118.565 54.1512 119.542 53.8424 120.536C53.4951 121.66 52.7189 122.228 51.6004 122.146C50.7273 122.082 49.8074 121.917 49.0312 121.544C48.5437 121.31 47.9711 120.585 48.0011 120.117C48.0362 119.568 48.5721 118.861 49.0846 118.567C50.3817 117.83 51.7189 118.26 53.0911 118.873C54.6003 114.614 56.1028 110.38 57.6536 106C59.4282 108.354 60.3631 110.697 59.2613 113.551C58.9107 112.063 59.3431 110.328 57.8072 109.263" fill="white"/>
<path fill-rule="evenodd" clip-rule="evenodd" d="M92.7706 68.2946C92.7833 67.913 93.2154 67.5094 93.7457 67.4849C94.2466 67.4592 94.7557 67.5553 95.3322 67.6052C95.7236 66.3794 96.1479 65.052 96.5935 63.6537L97.1735 61.8279V61.8279C99.353 62.1447 101.527 62.4604 103.718 62.7796C103.452 63.6157 103.201 64.4128 102.944 65.2065C102.529 66.4961 102.109 67.7857 101.693 69.0765C101.344 70.1583 100.49 70.5227 99.4196 70.0212C99.0486 69.8485 98.641 69.6651 98.6666 69.1572C98.6876 68.7438 99.0689 68.3625 99.6193 68.3298C100.136 68.2982 100.662 68.3954 101.259 68.4395L102.52 64.4904C101.576 64.3515 100.663 64.2127 99.75 64.0834C99.0696 63.9861 98.3797 63.9313 97.7087 63.7915C97.3094 63.7085 97.2079 63.8549 97.1089 64.1761C96.6904 65.5189 96.2507 66.8546 95.8193 68.1938C95.4562 69.3205 94.7264 69.6649 93.591 69.2165C93.1703 69.0508 92.7509 68.8391 92.7706 68.2946" fill="white"/>
<path fill-rule="evenodd" clip-rule="evenodd" d="M99.3009 121.915C99.3326 122.495 98.735 123.164 97.937 123.276C97.1808 123.383 96.3995 123.309 95.5197 123.316C95.0957 125.223 94.6366 127.294 94.1525 129.472L93.5264 132.319C90.1876 132.14 86.8555 131.965 83.5 131.784C83.7888 130.482 84.0609 129.243 84.3397 128.005C84.7921 125.99 85.2495 123.98 85.7019 121.969C86.0809 120.282 87.3229 119.612 89.009 120.222C89.5933 120.432 90.2377 120.656 90.2661 121.425C90.2895 122.056 89.7653 122.686 88.9389 122.813C88.1626 122.931 87.353 122.858 86.4448 122.871L85.0776 129.031C86.525 129.11 87.9239 129.192 89.3212 129.262C90.3646 129.314 91.413 129.3 92.4497 129.419C93.0623 129.489 93.1976 129.255 93.3044 128.754C93.7501 126.662 94.2343 124.58 94.7034 122.492C95.099 120.735 96.1558 120.111 97.9337 120.63C98.5931 120.824 99.2558 121.089 99.3009 121.915" fill="white"/>
<path fill-rule="evenodd" clip-rule="evenodd" d="M77.7601 49.6114C77.4179 49.6816 77.0189 49.6314 76.6834 49.5211C76.3061 49.4008 75.9722 49.15 75.5448 48.9143C74.4898 50.372 73.4397 51.8229 72.3896 53.2755C72.2227 53.5079 72.0324 53.7804 71.7369 53.5564C71.6568 53.4979 71.7419 53.0866 71.8621 52.9161C73.0491 51.2395 74.2594 49.5779 75.4647 47.9147C75.9171 47.2912 76.3211 47.124 77.0339 47.4132C77.4646 47.5871 77.8903 47.8595 78.2125 48.1905C78.7534 48.7455 78.5247 49.4509 77.7601 49.6114" fill="white"/>
<path fill-rule="evenodd" clip-rule="evenodd" d="M129.805 63.239C129.877 63.5182 129.655 63.901 129.281 64.0347C128.925 64.1617 128.54 64.2019 128.114 64.2938C128.099 65.2583 128.08 66.3064 128.064 67.4097L128.042 68.8489H128.04C126.408 69.0946 124.778 69.3404 123.136 69.5878C123.147 68.9275 123.156 68.3006 123.167 67.6738C123.187 66.6541 123.209 65.6361 123.229 64.6164C123.244 63.7639 123.78 63.3159 124.657 63.443C124.96 63.4864 125.294 63.5316 125.384 63.901C125.458 64.2035 125.266 64.5596 124.88 64.7033C124.516 64.8387 124.116 64.8839 123.678 64.9808L123.626 68.0967C124.334 67.9914 125.019 67.8911 125.703 67.7875C126.214 67.7089 126.72 67.5969 127.232 67.5518C127.536 67.525 127.58 67.398 127.58 67.1456C127.59 66.0891 127.616 65.0327 127.638 63.9745C127.655 63.0852 128.104 62.679 129.015 62.7543C129.354 62.7827 129.701 62.8445 129.805 63.239" fill="white"/>
</g>
</g>
</svg>
